<svg width="40" height="41" viewBox="0 0 40 41" fill="none" xmlns="http://www.w3.org/2000/svg">
<g clip-path="url(#clip0_0_1263)">
<path d="M39.856 31.7766L37.5328 25.0154C38.6527 22.7262 39.2445 20.1803 39.2484 17.6186C39.2553 13.1645 37.532 8.95297 34.3959 5.75999C31.2592 2.56639 27.0794 0.768655 22.6262 0.698108C18.0086 0.625139 13.6683 2.38155 10.4053 5.64453C7.25885 8.79086 5.51369 12.9388 5.45846 17.3713C2.35736 19.7061 0.526964 23.3464 0.53298 27.2346C0.53587 29.0541 0.945403 30.8628 1.72142 32.4983L0.121182 37.1552C-0.153897 37.9558 0.0470413 38.825 0.645636 39.4236C1.06689 39.8449 1.62228 40.0692 2.19345 40.0692C2.43376 40.0692 2.67689 40.0295 2.914 39.948L7.57096 38.3478C9.20651 39.1238 11.0152 39.5333 12.8347 39.5362C12.8413 39.5362 12.8475 39.5362 12.8541 39.5362C16.8002 39.5361 20.4682 37.6585 22.7945 34.4814C25.2154 34.4176 27.6106 33.8316 29.776 32.7723L36.5373 35.0956C36.819 35.1924 37.1079 35.2396 37.3934 35.2396C38.0722 35.2396 38.7322 34.973 39.2329 34.4722C39.9442 33.7609 40.1829 32.728 39.856 31.7766ZM12.8539 37.1553C12.8489 37.1553 12.8435 37.1553 12.8384 37.1553C11.2279 37.1529 9.62862 36.7558 8.2137 36.0072C7.92276 35.8534 7.5812 35.8268 7.2701 35.9337L2.49486 37.5745L4.13572 32.7993C4.2426 32.4882 4.21603 32.1466 4.06213 31.8558C3.31353 30.4407 2.9165 28.8415 2.914 27.231C2.91002 24.6404 3.91775 22.185 5.68002 20.3464C6.25565 23.8555 7.92807 27.0891 10.5204 29.6354C13.0936 32.1628 16.3282 33.772 19.8182 34.2981C17.9754 36.1144 15.4913 37.1553 12.8539 37.1553ZM37.5491 32.7886C37.4814 32.8564 37.4011 32.8748 37.3108 32.8437L30.0726 30.3565C29.9469 30.3133 29.8162 30.2919 29.6859 30.2919C29.4937 30.2919 29.3023 30.3384 29.1291 30.4301C27.0625 31.5234 24.7272 32.1033 22.3754 32.1068C22.3677 32.1068 22.3607 32.1068 22.3529 32.1068C14.473 32.1068 7.96417 25.7057 7.83932 17.8277C7.77643 13.8601 9.28565 10.1313 12.0889 7.32804C14.8921 4.52484 18.6215 3.01616 22.5886 3.07866C30.4742 3.20374 36.8797 9.72461 36.8675 17.6149C36.8638 19.9666 36.2841 22.302 35.1909 24.3685C35.037 24.6593 35.0104 25.0009 35.1173 25.3121L37.6044 32.5502C37.6354 32.6408 37.6168 32.7211 37.5491 32.7886Z" fill="#20155F"/>
<path d="M29.4447 11.282H15.2603C14.6028 11.282 14.0698 11.815 14.0698 12.4725C14.0698 13.13 14.6029 13.6629 15.2603 13.6629H29.4447C30.1022 13.6629 30.6351 13.1299 30.6351 12.4725C30.6351 11.815 30.1022 11.282 29.4447 11.282Z" fill="#20155F"/>
<path d="M29.4447 16.1781H15.2603C14.6028 16.1781 14.0698 16.7111 14.0698 17.3686C14.0698 18.026 14.6029 18.559 15.2603 18.559H29.4447C30.1022 18.559 30.6351 18.026 30.6351 17.3686C30.6351 16.7111 30.1022 16.1781 29.4447 16.1781Z" fill="#20155F"/>
<path d="M23.9847 21.0741H15.2603C14.6028 21.0741 14.0698 21.6071 14.0698 22.2646C14.0698 22.9221 14.6029 23.455 15.2603 23.455H23.9847C24.6422 23.455 25.1751 22.922 25.1751 22.2646C25.1751 21.6071 24.6422 21.0741 23.9847 21.0741Z" fill="#20155F"/>
</g>
<defs>
<clipPath id="clip0_0_1263">
<rect width="40" height="40" fill="white" transform="translate(0 0.382568)"/>
</clipPath>
</defs>
</svg>
