<svg width="80" height="50" viewBox="0 0 80 50" fill="none" xmlns="http://www.w3.org/2000/svg">
<path d="M40.0159 39.1315C39.062 38.409 37.8905 38.1702 36.7977 38.374C36.6259 37.3385 36.0747 36.4229 35.2347 35.7866C34.3642 35.1274 33.2895 34.8468 32.2078 34.996C31.9399 35.033 31.6795 35.0955 31.4292 35.1816C31.192 34.3684 30.7019 33.6215 29.9761 33.0718C28.7807 32.1663 27.2438 32.0215 25.9482 32.5543C25.6902 31.7779 25.2057 31.0973 24.5394 30.5926C23.6691 29.9334 22.5938 29.6529 21.5126 29.802C20.6355 29.9231 19.8396 30.3152 19.2183 30.9232L14.929 30.6381L17.558 9.28143L22.269 9.60158C22.2957 9.6033 22.3222 9.60424 22.3486 9.60424C22.7858 9.60424 23.1897 9.35986 23.3911 8.96674L25.1566 5.52191C25.6039 4.64988 26.6138 4.2066 27.558 4.46801L30.1799 5.19301C30.8031 5.36504 31.4491 4.99957 31.6217 4.37582C31.7942 3.75207 31.4283 3.10645 30.8046 2.93395L28.1832 2.20911C26.1738 1.65286 24.0238 2.59599 23.0715 4.45238L21.6579 7.21065L17.8451 6.95159L17.9354 6.21785C18.2241 3.8727 16.5512 1.73005 14.206 1.4413L5.17669 0.330369C4.53325 0.251619 3.94951 0.708024 3.87044 1.35021C3.79138 1.99255 4.2481 2.57739 4.89028 2.65645L13.9196 3.76801C14.4343 3.83129 14.8935 4.09129 15.2126 4.50004C15.5316 4.90879 15.6726 5.41738 15.6091 5.93207L12.5085 31.1195C12.3778 32.1818 11.4068 32.9391 10.3445 32.8091L1.31514 31.6976C0.672018 31.6191 0.0879583 32.0751 0.00889616 32.7174C-0.070166 33.3598 0.386551 33.9446 1.02874 34.0237L10.0581 35.1352C10.2349 35.1569 10.4107 35.1676 10.5846 35.1676C12.1674 35.1676 13.5954 34.2882 14.3352 32.9477L17.5441 33.161C17.1605 33.9035 17.0135 34.744 17.1301 35.5888C17.2795 36.6702 17.841 37.629 18.7113 38.288C19.429 38.8316 20.2855 39.1177 21.1705 39.1177C21.3588 39.1177 21.5483 39.1047 21.7382 39.0787C21.7504 39.0769 21.7622 39.0746 21.7743 39.0727C21.7758 39.0849 21.7768 39.0969 21.7783 39.1091C21.9277 40.1905 22.4893 41.1493 23.3596 41.8083C24.0963 42.3661 24.9625 42.6357 25.8224 42.6357C26.0239 42.6357 26.225 42.6193 26.4241 42.5899C26.5591 43.6411 27.0983 44.6397 28.008 45.3286C28.7447 45.8866 29.611 46.156 30.4708 46.156C30.6717 46.156 30.8722 46.1397 31.0706 46.1105C31.0724 46.1235 31.0733 46.1366 31.075 46.1496C31.2244 47.231 31.786 48.1897 32.6564 48.8488C33.3741 49.3922 34.2306 49.6784 35.1155 49.6784C35.3039 49.6784 35.4934 49.6655 35.6831 49.6394C36.7647 49.49 37.7233 48.9285 38.3823 48.0581L40.8064 44.8574C42.1673 43.0608 41.8126 40.4921 40.0159 39.1315ZM21.4177 36.7571C20.9566 36.8208 20.4979 36.701 20.1266 36.4198C19.7554 36.1387 19.5158 35.7296 19.4521 35.2684C19.3883 34.8069 19.5082 34.3485 19.7894 33.9771L20.6821 32.7984C20.9632 32.4271 21.3722 32.1876 21.8335 32.1238C22.2949 32.0606 22.7533 32.1799 23.1247 32.4612C23.496 32.7423 23.7355 33.1513 23.7993 33.6126C23.863 34.0738 23.7432 34.5323 23.4621 34.9037L22.5693 36.0824C22.288 36.4537 21.8791 36.6933 21.4177 36.7571ZM24.7749 39.9401C24.4036 39.659 24.1641 39.2499 24.1004 38.7887C24.0366 38.3272 24.1565 37.8688 24.4377 37.4974L25.3304 36.3188C25.3304 36.3188 25.3305 36.3187 25.3305 36.3185L26.1188 35.2776C26.4613 34.8254 26.983 34.5874 27.5108 34.5874C27.8775 34.5874 28.2471 34.7024 28.5613 34.9404C29.3277 35.5209 29.4791 36.6165 28.8986 37.383L27.2175 39.6029C26.6371 40.3693 25.5413 40.5205 24.7749 39.9401ZM29.4233 43.4604C29.0521 43.1793 28.8125 42.7702 28.7488 42.3088C28.685 41.8477 28.8047 41.3893 29.0856 41.0182C29.0858 41.018 29.0858 41.0179 29.086 41.0177L30.767 38.7977L31.377 37.9922C31.6581 37.621 32.0672 37.3815 32.5286 37.3177C32.9902 37.2543 33.4484 37.3738 33.8199 37.6551C34.5859 38.2352 34.7373 39.3304 34.1577 40.0968L31.866 43.1229C31.8658 43.123 31.8656 43.1232 31.8656 43.1233C31.285 43.8894 30.1899 44.0408 29.4233 43.4604ZM38.9383 43.4425L36.5142 46.6433C36.2331 47.0146 35.8241 47.2541 35.3628 47.3178C34.9011 47.3814 34.4428 47.2617 34.0716 46.9806C33.7003 46.6996 33.4608 46.2905 33.397 45.8293C33.3333 45.3678 33.4531 44.9094 33.7344 44.538L36.0256 41.5127C36.0261 41.5122 36.0264 41.5116 36.0269 41.5111L36.1586 41.3372C36.4397 40.966 36.8487 40.7265 37.3102 40.6627C37.7716 40.5994 38.23 40.7188 38.6014 41C39.3673 41.5802 39.5187 42.6761 38.9383 43.4425Z" fill="white"/>
<path d="M79.9912 32.7174C79.9122 32.0752 79.3279 31.6191 78.685 31.6976L69.6558 32.8091C68.5919 32.9399 67.6225 32.1818 67.4917 31.1195L67.3992 30.3677L67.3778 30.1937L64.3913 5.93206C64.3278 5.41738 64.4688 4.90894 64.7878 4.50004C65.1069 4.09129 65.5661 3.83129 66.0808 3.76801L75.1101 2.65645C75.7525 2.57739 76.209 1.99255 76.13 1.35021C76.0509 0.708024 75.4667 0.251932 74.8237 0.330369L65.7944 1.44193C63.5877 1.71364 61.9768 3.62692 62.0347 5.80581L59.7577 6.08613L52.7068 2.11817C51.7084 1.55568 50.5765 1.31412 49.4335 1.41912C49.4312 1.41927 49.4288 1.4199 49.4265 1.42005L47.3042 1.6163C46.6596 1.67583 46.1856 2.24661 46.2453 2.89114C46.3048 3.53551 46.8746 4.00879 47.5201 3.95004L49.6484 3.75317C50.3143 3.69161 50.9743 3.83254 51.5568 4.16035L58.8672 8.2744C59.096 8.42533 59.3744 8.4944 59.656 8.45987L62.3007 8.1344L64.2405 23.8911L64.9113 29.3401L60.693 29.3435C60.4118 29.3437 60.1402 29.4451 59.9279 29.6287L59.6015 29.8827L49.0112 20.7553C51.4313 20.0595 53.7384 18.3765 55.8954 15.7276C56.304 15.2258 56.2285 14.4877 55.7266 14.0789C55.2248 13.6703 54.4865 13.7458 54.0779 14.2477C51.667 17.2086 49.132 18.7326 46.5432 18.7773C42.7718 18.8483 40.0008 15.7211 39.9753 15.6919C39.7448 15.4253 39.407 15.2778 39.0548 15.2864C38.7026 15.2964 38.3737 15.4645 38.159 15.7437L35.0111 19.8406C33.3525 21.9993 30.527 22.8037 27.98 21.8415L27.6439 21.7145C27.3488 21.6029 27.2285 21.3723 27.1831 21.2447C27.1378 21.117 27.0853 20.8622 27.2438 20.5893L35.46 6.44769C35.9914 5.533 36.9376 4.92879 37.9911 4.83129L42.8556 4.38145C43.5001 4.32176 43.9742 3.75098 43.9145 3.10661C43.8548 2.46224 43.284 1.98833 42.6397 2.04771L37.7751 2.49755C35.9681 2.66474 34.345 3.70129 33.4333 5.27035L25.2171 19.412C24.7546 20.2083 24.6661 21.1625 24.9747 22.0301C25.2833 22.8978 25.9544 23.5818 26.8156 23.9071L27.1517 24.0342C28.143 24.4086 29.1644 24.5893 30.1722 24.5893C32.743 24.5892 35.2226 23.412 36.8695 21.2687L39.2181 18.2122C40.4767 19.2969 42.8246 20.9034 45.8218 21.1008L61.1257 34.2907C61.4008 34.5277 61.5672 34.8577 61.5941 35.2199C61.621 35.5821 61.5054 35.9332 61.2686 36.208L60.6722 36.8997C59.923 37.7676 58.606 37.864 57.7366 37.1151C57.688 37.0732 57.6363 37.0372 57.5833 37.0047L53.6105 33.5791C53.1207 33.1566 52.3805 33.2113 51.9577 33.7015C51.5351 34.1916 51.5899 34.9316 52.0801 35.3543L55.3085 38.138L53.8359 39.8471C53.3834 40.3719 52.7024 40.6371 52.0151 40.5563C51.6037 40.5079 51.2185 40.3377 50.9013 40.0641C50.8957 40.0593 50.8896 40.0552 50.884 40.0505L47.1926 36.8677C46.7024 36.4452 45.9626 36.4999 45.5398 36.9901C45.1171 37.4802 45.172 38.2202 45.6621 38.6429L48.4831 41.0752L47.0017 42.7957C46.549 43.3207 45.8665 43.5858 45.179 43.5049C44.536 43.4289 43.9539 43.8893 43.8784 44.5319C43.8029 45.1747 44.2626 45.7571 44.9054 45.8325C45.079 45.8528 45.2521 45.863 45.4246 45.863C46.7043 45.863 47.9292 45.3088 48.7773 44.3255L50.361 42.4863C50.7937 42.6925 51.2588 42.8274 51.7413 42.8841C53.2038 43.056 54.6496 42.4927 55.6112 41.3774L57.1976 39.5363C58.9519 40.3685 61.1188 39.9693 62.4469 38.4307L63.0441 37.738C63.6897 36.9885 64.0049 36.0324 63.9316 35.046C63.8583 34.0594 63.405 33.1605 62.656 32.5154L61.6941 31.6865L65.2099 31.6835C65.5941 33.7085 67.3761 35.1677 69.4153 35.1677C69.5891 35.1677 69.7652 35.1571 69.9419 35.1354L78.9712 34.0238C79.6136 33.9446 80.0703 33.3599 79.9912 32.7174Z" fill="white"/>
<path d="M72.5003 24.2576C70.605 24.2576 69.063 25.7995 69.063 27.6948C69.063 29.5901 70.605 31.1322 72.5003 31.1322C74.3956 31.1322 75.9375 29.5901 75.9375 27.6948C75.9375 25.7995 74.3956 24.2576 72.5003 24.2576ZM72.5003 28.7884C71.8974 28.7884 71.4067 28.2978 71.4067 27.6948C71.4067 27.0918 71.8974 26.6014 72.5003 26.6014C73.1033 26.6014 73.5938 27.0918 73.5938 27.6948C73.5938 28.2978 73.1033 28.7884 72.5003 28.7884Z" fill="white"/>
<path d="M10.8109 27.6948C10.8109 25.7995 9.26902 24.2576 7.37371 24.2576C5.4784 24.2576 3.93652 25.7995 3.93652 27.6948C3.93652 29.5901 5.4784 31.1322 7.37371 31.1322C9.26902 31.1322 10.8109 29.5901 10.8109 27.6948ZM6.28027 27.6948C6.28027 27.0918 6.77074 26.6014 7.37371 26.6014C7.97668 26.6014 8.46715 27.0918 8.46715 27.6948C8.46715 28.2978 7.97668 28.7884 7.37371 28.7884C6.77074 28.7884 6.28027 28.2978 6.28027 27.6948Z" fill="white"/>
</svg>
