<svg width="80" height="80" viewBox="0 0 80 80" fill="none" xmlns="http://www.w3.org/2000/svg">
<path d="M79.7736 12.0436C80.7355 11.0829 80.0891 9.4032 78.6936 9.37879C78.6844 9.37879 78.6752 9.37757 78.6661 9.37757H73.0527L76.6425 5.7948C77.2534 5.18505 77.2534 4.19567 76.6425 3.58532C76.0309 2.97497 75.0396 2.97497 74.4281 3.58532L70.8389 7.16748V1.56505C70.8389 1.56322 70.8383 1.56078 70.8383 1.55834C70.8328 0.199082 69.1816 -0.524796 68.1817 0.446275C68.1768 0.451768 68.1713 0.45543 68.1664 0.460313L62.054 6.56079C55.5509 2.43908 47.4625 0.00315871 40.1546 0.00315871C18.5798 0.00315871 0.078125 18.4498 0.078125 40.0014C0.078125 61.5469 18.5713 80.0003 40.1546 80.0003C61.7305 80.0003 80.2316 61.5511 80.2316 40.0014C80.2316 32.2371 77.8845 24.3153 73.7602 18.0464L79.773 12.0448C79.7736 12.0448 79.7736 12.0442 79.7736 12.0436ZM74.8867 12.5026L71.0297 16.3515C70.9361 16.3942 70.845 16.4467 70.7582 16.5095C70.5313 16.6743 70.3625 16.888 70.2542 17.126L65.0029 22.3671L59.8696 22.5349L69.9216 12.5026H74.8867ZM54.5712 23.4041L53.3835 24.5888C51.4633 22.9396 49.2421 21.6396 46.8394 20.815C46.0217 20.5348 45.1313 20.9688 44.85 21.7848C44.5693 22.6009 45.0041 23.4895 45.8218 23.7703C47.7757 24.4405 49.5864 25.4829 51.1661 26.8019L46.7152 31.2441C44.8292 29.8299 42.55 29.0645 40.1546 29.0645C34.1125 29.0645 29.1963 33.9705 29.1963 40.0014C29.1963 46.0323 34.1125 50.9383 40.1546 50.9383C46.1973 50.9383 51.1135 46.0323 51.1135 40.0014C51.1135 37.6113 50.346 35.3371 48.929 33.4542L53.3792 29.012C56.1116 32.2737 57.3751 36.1824 57.3751 40.0014C57.3751 49.4924 49.6317 57.1883 40.1546 57.1883C30.6597 57.1883 22.934 49.4783 22.934 40.0014C22.934 32.2475 27.9989 26.0219 34.4935 23.7685C35.3099 23.4846 35.7417 22.5941 35.4573 21.7793C35.1735 20.9645 34.2813 20.5336 33.4649 20.8168C25.2805 23.6586 19.8035 31.454 19.8035 40.0014C19.8035 51.2014 28.9333 60.3133 40.1546 60.3133C51.3031 60.3133 60.5062 51.274 60.5062 40.0014C60.5062 37.9598 60.2133 36.0073 59.6103 34.0334C58.7951 31.4217 57.5133 29.0224 55.5979 26.7983L56.6308 25.7674L63.241 25.5513C65.7881 29.6883 67.2381 34.9037 67.2381 40.0014C67.2381 54.6529 54.8353 67.0315 40.1546 67.0315C25.4744 67.0315 13.0716 54.6529 13.0716 40.0014C13.0716 25.3493 25.4744 12.9713 40.1546 12.9713C45.2799 12.9713 50.5203 14.4276 54.6745 16.9868L54.5712 23.4041ZM47.9824 40.0014C47.9824 44.3093 44.4709 47.8139 40.1546 47.8139C35.8389 47.8139 32.3274 44.3093 32.3274 40.0014C32.3274 35.6935 35.8389 32.1895 40.1546 32.1895C41.711 32.1895 43.1995 32.6424 44.4696 33.4853L39.0477 38.8967C38.4367 39.507 38.4367 40.4964 39.0477 41.1068C39.6592 41.7165 40.6505 41.7165 41.2621 41.1068L46.684 35.6954C47.5286 36.9637 47.9824 38.4487 47.9824 40.0014ZM57.7536 20.2272C57.8234 15.8937 57.7653 19.5039 57.8344 15.1912L63.3462 9.69007C63.3474 9.68885 63.3493 9.68762 63.3505 9.68579L67.7078 5.33764V10.2925L57.7536 20.2272ZM77.1005 40.0014C77.1005 59.6444 59.8366 76.8753 40.1546 76.8753C20.4732 76.8753 3.20924 59.6444 3.20924 40.0014C3.20924 20.3584 20.4732 3.12755 40.1546 3.12755C46.6712 3.12755 53.8728 5.23815 59.7809 8.82886L55.1723 13.4291C55.1228 13.4785 55.0781 13.5316 55.0365 13.5866C50.6285 11.1928 45.3331 9.84632 40.1546 9.84632C23.7768 9.84632 9.94053 23.6555 9.94053 40.0014C9.94053 56.3473 23.7768 70.1571 40.1546 70.1571C56.5324 70.1571 70.3692 56.3473 70.3692 40.0014C70.3692 34.8342 69.0201 29.5461 66.6223 25.1485C66.6773 25.107 66.7305 25.0624 66.7794 25.0136L71.4945 20.3078C75.0726 25.9859 77.1005 33.0568 77.1005 40.0014Z" fill="white"/>
</svg>
