<svg width="66" height="74" viewBox="0 0 66 74" fill="none" xmlns="http://www.w3.org/2000/svg">
<path d="M47.2398 33.6125C47.2393 30.7959 46.4036 28.0427 44.8384 25.7011C43.2732 23.3594 41.0488 21.5345 38.4465 20.457C35.8441 19.3795 32.9807 19.0979 30.2183 19.6478C27.4559 20.1977 24.9185 21.5544 22.9272 23.5463C20.9358 25.5382 19.5798 28.0758 19.0306 30.8384C18.4815 33.6009 18.7638 36.4643 19.842 39.0664C20.9201 41.6684 22.7457 43.8924 25.0877 45.457C27.4298 47.0216 30.1832 47.8565 32.9998 47.8563C36.7757 47.8516 40.3956 46.3494 43.0652 43.679C45.7349 41.0087 47.2362 37.3884 47.2398 33.6125V33.6125ZM32.9998 45.6656C30.5428 45.6691 28.1446 44.9138 26.133 43.5031C26.1929 42.2403 26.596 41.0178 27.2988 39.9669C28.0016 38.916 28.9775 38.0765 30.1217 37.5388C31.0003 38.0458 31.9972 38.3119 33.0116 38.31C34.026 38.3082 35.0219 38.0384 35.8986 37.5281C37.0499 38.0572 38.031 38.8966 38.7317 39.9523C39.4324 41.0079 39.825 42.238 39.8655 43.5044C37.8547 44.916 35.4566 45.6709 32.9998 45.6656ZM32.9998 36.125C32.2838 36.125 31.5839 35.9127 30.9886 35.5149C30.3933 35.1171 29.9293 34.5517 29.6553 33.8902C29.3814 33.2287 29.3097 32.5008 29.4494 31.7986C29.5892 31.0963 29.934 30.4513 30.4403 29.9451C30.9467 29.4388 31.5917 29.0941 32.294 28.9545C32.9962 28.8149 33.7241 28.8867 34.3856 29.1608C35.047 29.4348 35.6124 29.8989 36.0101 30.4943C36.4078 31.0897 36.62 31.7896 36.6198 32.5056C36.6165 33.4647 36.2341 34.3834 35.5559 35.0615C34.8777 35.7396 33.9588 36.1219 32.9998 36.125V36.125ZM20.9455 33.6125C20.934 32.0223 21.2373 30.4456 21.8379 28.9732C22.4385 27.5007 23.3246 26.1617 24.445 25.0332C25.5654 23.9047 26.898 23.009 28.3661 22.3978C29.8342 21.7866 31.4087 21.472 32.9989 21.472C34.5891 21.472 36.1636 21.7866 37.6317 22.3978C39.0998 23.009 40.4324 23.9047 41.5528 25.0332C42.6732 26.1617 43.5592 27.5007 44.1599 28.9732C44.7605 30.4456 45.0638 32.0223 45.0523 33.6125C45.0629 36.6506 43.9152 39.5784 41.843 41.8C41.5817 40.5923 41.0736 39.4516 40.3503 38.4497C39.6271 37.4478 38.7045 36.6064 37.6405 35.9781C38.2897 35.1148 38.6852 34.0875 38.7826 33.0117C38.88 31.9359 38.6754 30.8543 38.1918 29.8884C37.7082 28.9225 36.9647 28.1106 36.0451 27.5441C35.1254 26.9775 34.0659 26.6787 32.9857 26.6813C31.9055 26.6838 30.8474 26.9876 29.9304 27.5585C29.0134 28.1294 28.2738 28.9448 27.7948 29.9129C27.3157 30.8811 27.1162 31.9637 27.2187 33.039C27.3212 34.1143 27.7215 35.1398 28.3748 36C27.3183 36.636 26.4009 37.4786 25.6776 38.4773C24.9542 39.476 24.4397 40.6104 24.1648 41.8125C22.0859 39.5894 20.9343 36.6563 20.9455 33.6125V33.6125Z" fill="white"/>
<path d="M11.8908 13.9225L11.8065 17.38C11.8023 17.557 11.8411 17.7324 11.9197 17.8911C11.9982 18.0498 12.1141 18.187 12.2574 18.291C12.4007 18.3951 12.5671 18.4627 12.7423 18.4882C12.9175 18.5137 13.0963 18.4963 13.2633 18.4375L16.5258 17.2888L19.7877 18.4375C19.9548 18.4964 20.1336 18.5138 20.3089 18.4882C20.4841 18.4627 20.6506 18.395 20.7939 18.2909C20.9372 18.1868 21.0531 18.0494 21.1316 17.8907C21.2101 17.7319 21.2489 17.5564 21.2446 17.3794L21.1602 13.9219L23.2602 11.1719C23.3679 11.0312 23.4399 10.8665 23.4698 10.6919C23.4997 10.5172 23.4868 10.338 23.4321 10.1695C23.3773 10.001 23.2825 9.84828 23.1556 9.72458C23.0288 9.60088 22.8738 9.50987 22.704 9.45937L19.3915 8.47062L17.4258 5.625C17.3253 5.47907 17.1909 5.35976 17.0341 5.27733C16.8772 5.19491 16.7027 5.15184 16.5255 5.15184C16.3483 5.15184 16.1738 5.19491 16.017 5.27733C15.8601 5.35976 15.7257 5.47907 15.6252 5.625L13.6615 8.47125L10.349 9.46C10.1791 9.51049 10.0241 9.60151 9.89729 9.72521C9.77046 9.84891 9.67559 10.0016 9.62085 10.1701C9.56612 10.3386 9.55316 10.5179 9.5831 10.6925C9.61304 10.8671 9.68497 11.0318 9.79271 11.1725L11.8908 13.9225ZM14.6552 10.4606C14.894 10.3892 15.1013 10.2384 15.2427 10.0331L16.5258 8.17437L17.8077 10.0331C17.9495 10.2382 18.157 10.389 18.3958 10.4606L20.5627 11.1056L19.1877 12.9C19.0363 13.0978 18.9571 13.3416 18.9633 13.5906L19.0183 15.8481L16.8883 15.0981C16.6533 15.0156 16.3971 15.0156 16.1621 15.0981L14.0315 15.8481L14.0865 13.5906C14.0927 13.3416 14.0135 13.0978 13.8621 12.9L12.4871 11.1056L14.6552 10.4606Z" fill="white"/>
<path d="M44.838 13.9224L44.7542 17.3793C44.7497 17.5564 44.7883 17.7319 44.8667 17.8908C44.9451 18.0497 45.0609 18.1871 45.2042 18.2913C45.3475 18.3954 45.5139 18.4632 45.6892 18.4888C45.8645 18.5144 46.0434 18.4969 46.2105 18.438L49.4724 17.2893L52.7348 18.438C52.9019 18.4968 53.0806 18.5141 53.2558 18.4885C53.431 18.4629 53.5974 18.3951 53.7406 18.2911C53.8838 18.187 53.9996 18.0497 54.0781 17.891C54.1566 17.7323 54.1954 17.5569 54.1911 17.3799L54.1073 13.9224L56.208 11.1724C56.3154 11.0317 56.3871 10.867 56.4168 10.6924C56.4466 10.5179 56.4335 10.3387 56.3787 10.1704C56.3239 10.002 56.2291 9.84943 56.1024 9.72579C55.9756 9.60215 55.8208 9.51113 55.6511 9.46054L52.3386 8.47179L50.3749 5.62492C50.2689 5.48675 50.1326 5.3748 49.9765 5.29776C49.8204 5.22072 49.6486 5.18065 49.4745 5.18065C49.3004 5.18065 49.1287 5.22072 48.9726 5.29776C48.8164 5.3748 48.6801 5.48675 48.5742 5.62492L46.6099 8.47117L43.2974 9.45992C43.1277 9.51059 42.9728 9.60169 42.8461 9.72539C42.7193 9.84909 42.6245 10.0017 42.5698 10.1701C42.515 10.3385 42.5019 10.5177 42.5317 10.6923C42.5614 10.8669 42.633 11.0316 42.7405 11.1724L44.838 13.9224ZM47.6023 10.4605C47.8411 10.3887 48.0485 10.238 48.1905 10.033L49.4724 8.17429L50.7548 10.033C50.8968 10.238 51.1042 10.3887 51.343 10.4605L53.5067 11.1055L52.1355 12.8999C51.9842 13.0978 51.9053 13.3415 51.9117 13.5905L51.9661 15.848L49.8355 15.098C49.6005 15.0152 49.3442 15.0152 49.1092 15.098L46.9792 15.848L47.0342 13.5905C47.0412 13.3418 46.9629 13.0981 46.8123 12.8999L45.4374 11.1055L47.6023 10.4605Z" fill="white"/>
<path d="M28.3646 9.48438L28.2802 12.9419C28.2759 13.1189 28.3147 13.2944 28.3932 13.4532C28.4717 13.612 28.5876 13.7493 28.7309 13.8534C28.8742 13.9575 29.0406 14.0252 29.2159 14.0507C29.3912 14.0763 29.57 14.0589 29.7371 14L33.0002 12.8519L36.2627 14C36.4297 14.0587 36.6085 14.076 36.7837 14.0504C36.9588 14.0248 37.1252 13.9571 37.2684 13.853C37.4117 13.7489 37.5275 13.6117 37.6059 13.453C37.6844 13.2943 37.7232 13.1189 37.7189 12.9419L37.6352 9.48438L39.7358 6.73438C39.8434 6.59362 39.9152 6.42886 39.945 6.25424C39.9749 6.07961 39.9619 5.90036 39.9072 5.73186C39.8525 5.56337 39.7577 5.41067 39.6309 5.2869C39.5042 5.16312 39.3493 5.07196 39.1796 5.02125L35.8671 4.03313L33.8989 1.1875C33.793 1.04944 33.6568 0.937604 33.5007 0.860637C33.3446 0.783669 33.1729 0.743637 32.9989 0.743637C32.8249 0.743637 32.6532 0.783669 32.4972 0.860637C32.3411 0.937604 32.2049 1.04944 32.0989 1.1875L30.1346 4.03375L26.8221 5.02188C26.6522 5.07246 26.4972 5.16355 26.3704 5.28731C26.2436 5.41107 26.1487 5.56379 26.094 5.73234C26.0393 5.90088 26.0263 6.0802 26.0562 6.25486C26.0862 6.42952 26.1581 6.5943 26.2658 6.735L28.3646 9.48438ZM31.1289 6.02188C31.3678 5.95092 31.5752 5.80026 31.7164 5.595L33.0002 3.73625L34.2833 5.595C34.4246 5.80026 34.6319 5.95092 34.8708 6.02188L37.0352 6.6675L35.6633 8.46125C35.5122 8.6595 35.4331 8.90329 35.4389 9.1525L35.4933 11.4106L33.3639 10.6606C33.1287 10.5781 32.8723 10.5781 32.6371 10.6606L30.5071 11.4106L30.5621 9.1525C30.5682 8.90325 30.4891 8.65936 30.3377 8.46125L28.9627 6.6675L31.1289 6.02188Z" fill="white"/>
<path d="M26.125 63.1556H24.4375V56.275C24.4384 55.088 24.1844 53.9148 23.6927 52.8344C23.2011 51.7541 22.4831 50.792 21.5875 50.0131L13.6062 43.0625L13.2556 33.2162C13.2377 32.631 13.0769 32.0591 12.7873 31.5502C12.4977 31.0414 12.0881 30.611 11.5941 30.2967C11.1001 29.9825 10.5368 29.7937 9.95312 29.747C9.3695 29.7003 8.7833 29.797 8.24561 30.0287C8.05851 29.1064 7.53267 28.2875 6.77174 27.7336C6.01081 27.1797 5.06999 26.931 4.13474 27.0364C3.19949 27.1418 2.33765 27.5938 1.71911 28.3031C1.10057 29.0125 0.770194 29.9279 0.793109 30.8687C0.855609 33.5175 1.04936 40.475 1.57061 47.8525C2.07998 55.0337 6.37936 60.4344 9.07748 63.1556H7.28373C6.99365 63.1556 6.71545 63.2708 6.51034 63.476C6.30522 63.6811 6.18998 63.9593 6.18998 64.2494V72.1869C6.18998 72.4769 6.30522 72.7551 6.51034 72.9603C6.71545 73.1654 6.99365 73.2806 7.28373 73.2806H26.125C26.4151 73.2806 26.6933 73.1654 26.8984 72.9603C27.1035 72.7551 27.2187 72.4769 27.2187 72.1869V64.25C27.2188 64.1063 27.1906 63.964 27.1357 63.8312C27.0807 63.6985 27.0002 63.5778 26.8986 63.4762C26.797 63.3746 26.6764 63.2939 26.5437 63.2389C26.4109 63.1839 26.2687 63.1556 26.125 63.1556V63.1556ZM9.65623 31.9187C10.0241 31.9173 10.378 32.0599 10.6421 32.3161C10.9062 32.5722 11.0596 32.9216 11.0694 33.2894L11.3819 42.0069C10.5471 41.8698 9.69033 41.9954 8.92998 42.3662L8.43498 32.6412C8.55662 32.4237 8.73369 32.2423 8.9482 32.1153C9.16271 31.9884 9.407 31.9206 9.65623 31.9187ZM3.74998 47.6981C3.23248 40.3681 3.03686 33.4519 2.97748 30.8162C2.96199 30.3966 3.11382 29.988 3.39957 29.6804C3.68533 29.3727 4.08161 29.1911 4.50123 29.1756C4.92086 29.1601 5.32945 29.312 5.63713 29.5977C5.9448 29.8835 6.12636 30.2798 6.14186 30.6994L6.84811 44.5744C6.51331 45.3878 6.44147 46.2856 6.64266 47.1419C6.84385 47.9982 7.30798 48.7701 7.96998 49.3494L16.6887 56.9806C16.9089 57.1569 17.1886 57.2414 17.4695 57.2164C17.7505 57.1914 18.0109 57.0588 18.1964 56.8464C18.3819 56.6339 18.4782 56.358 18.4651 56.0763C18.452 55.7945 18.3306 55.5287 18.1262 55.3344L9.41498 47.7037C9.21318 47.5274 9.04819 47.3129 8.9295 47.0727C8.8108 46.8324 8.74073 46.5711 8.72331 46.3036C8.70589 46.0362 8.74146 45.768 8.82798 45.5143C8.9145 45.2607 9.05027 45.0266 9.22748 44.8256V44.8256C9.40339 44.6256 9.617 44.4623 9.85612 44.3449C10.0952 44.2276 10.3551 44.1585 10.621 44.1417C10.8868 44.125 11.1533 44.1608 11.4053 44.2471C11.6572 44.3335 11.8897 44.4687 12.0894 44.645L20.15 51.6631C20.8098 52.2366 21.3388 52.9452 21.7011 53.7409C22.0634 54.5365 22.2506 55.4007 22.25 56.275V63.15H12.2987C10.8681 61.9537 4.34561 56.0625 3.74998 47.6981ZM25.0312 71.0956H8.37498V65.3456H25.0312V71.0956Z" fill="white"/>
<path d="M64.4294 47.8525C64.9506 40.4775 65.1469 33.5175 65.2062 30.8712C65.2321 29.9292 64.9035 29.0117 64.2856 28.3002C63.6677 27.5887 62.8053 27.1348 61.8689 27.0284C60.9325 26.922 59.9903 27.1707 59.2284 27.7255C58.4666 28.2802 57.9406 29.1005 57.7544 30.0244C57.2167 29.7927 56.6305 29.6959 56.0468 29.7426C55.4632 29.7894 54.8999 29.9781 54.4059 30.2924C53.9119 30.6067 53.5022 31.037 53.2126 31.5458C52.9231 32.0547 52.7623 32.6267 52.7444 33.2119L52.3937 43.0625L44.4144 50.0119C43.5184 50.7909 42.8002 51.7532 42.3082 52.8337C41.8162 53.9142 41.5619 55.0877 41.5625 56.275V63.1556H39.8706C39.7269 63.1555 39.5847 63.1838 39.452 63.2387C39.3192 63.2936 39.1986 63.3742 39.097 63.4758C38.9954 63.5774 38.9149 63.698 38.8599 63.8307C38.805 63.9634 38.7768 64.1057 38.7769 64.2494V72.1869C38.7768 72.3305 38.805 72.4728 38.8599 72.6055C38.9149 72.7382 38.9954 72.8589 39.097 72.9604C39.1986 73.062 39.3192 73.1426 39.452 73.1975C39.5847 73.2525 39.7269 73.2807 39.8706 73.2806H58.7144C59.0044 73.2806 59.2826 73.1654 59.4878 72.9603C59.6929 72.7551 59.8081 72.4769 59.8081 72.1869V64.25C59.8081 63.9599 59.6929 63.6817 59.4878 63.4766C59.2826 63.2715 59.0044 63.1562 58.7144 63.1562H56.9219C59.62 60.4375 63.92 55.0337 64.4294 47.8525ZM57.6206 71.0956H40.9644V65.3456H57.6206V71.0956ZM56.3437 31.9187C56.5932 31.9201 56.8379 31.9877 57.0527 32.1146C57.2675 32.2416 57.4447 32.4233 57.5662 32.6412L57.0719 42.3656C56.3113 41.9955 55.4547 41.8701 54.62 42.0069L54.9325 33.2856C54.9431 32.9188 55.0965 32.5706 55.3602 32.3152C55.6238 32.0599 55.9767 31.9176 56.3437 31.9187V31.9187ZM43.75 56.275C43.7494 55.4006 43.9365 54.5363 44.2987 53.7405C44.6609 52.9446 45.1897 52.2358 45.8494 51.6619L53.9081 44.6425C54.3112 44.2876 54.8386 44.1071 55.3746 44.1407C55.9106 44.1743 56.4113 44.4193 56.7669 44.8219L56.7731 44.83C56.9495 45.0308 57.0846 45.2644 57.1707 45.5175C57.2568 45.7705 57.2921 46.0381 57.2747 46.3048C57.2573 46.5715 57.1874 46.8322 57.0692 47.0719C56.951 47.3116 56.7866 47.5257 56.5856 47.7019L47.8669 55.3331C47.6625 55.5275 47.5411 55.7933 47.528 56.075C47.5149 56.3568 47.6112 56.6327 47.7967 56.8451C47.9822 57.0576 48.2426 57.1901 48.5236 57.2152C48.8045 57.2402 49.0842 57.1557 49.3044 56.9794L58.0256 49.3462C58.6869 48.7669 59.1504 47.9953 59.3513 47.1393C59.5521 46.2834 59.4802 45.3861 59.1456 44.5731L59.8519 30.6981C59.8674 30.2787 60.049 29.8826 60.3566 29.597C60.6642 29.3114 61.0727 29.1597 61.4922 29.1753C61.9116 29.1909 62.3077 29.3725 62.5933 29.6801C62.8789 29.9877 63.0306 30.3962 63.015 30.8156C62.9556 33.4487 62.7612 40.3644 62.2425 47.6944C61.6512 56.0356 55.1256 61.9444 53.6956 63.1469H43.75V56.275Z" fill="white"/>
</svg>
