<svg width="66" height="80" viewBox="0 0 66 80" fill="none" xmlns="http://www.w3.org/2000/svg">
<path d="M54.6719 19.0447L65.5193 5.48549C62.8914 5.16831 42.0528 -0.375373 21.2473 4.08737V0H16.5414V56.7683C12.4865 57.8158 9.48257 61.5048 9.48257 65.8823V66.119C4.11927 67.2122 0.0708008 71.9656 0.0708008 77.647V80H37.7179V77.647C37.7179 71.9655 33.6694 67.2122 28.3061 66.119V65.8823C28.3061 61.5049 25.3022 57.8158 21.2473 56.7683V37.2023C45.2998 32.3413 62.6798 38.3132 65.9292 38.7449L54.6719 19.0447ZM32.6087 75.2941H5.17982C6.1508 72.5551 8.76774 70.5882 11.8355 70.5882H25.9532C29.0208 70.5882 31.6376 72.5551 32.6087 75.2941ZM23.6002 65.8823H14.1885C14.1885 63.2875 16.2995 61.1765 18.8943 61.1765C21.4892 61.1765 23.6002 63.2875 23.6002 65.8823ZM21.2473 32.4036V8.90525C31.6518 6.51012 43.3805 6.43372 56.9394 8.67702L48.9991 18.6024L56.654 31.9984C44.882 30.006 33.0056 30.141 21.2473 32.4036Z" fill="white"/>
</svg>
